REM MD5 8fc87f3fab369b78ee348aa023d895b5
FILE "Euro Demo 35 (France).bin" BINARY
  TRACK 01 MODE2/2352
    INDEX 01 00:00:00
  TRACK 02 AUDIO
    INDEX 00 60:05:49
    INDEX 01 60:07:49
  TRACK 03 AUDIO
    INDEX 00 60:46:29
    INDEX 01 60:48:29
  TRACK 04 AUDIO
    INDEX 00 61:58:45
    INDEX 01 62:00:45
  TRACK 05 AUDIO
    INDEX 00 62:05:12
    INDEX 01 62:07:12
  TRACK 06 AUDIO
    INDEX 00 65:47:20
    INDEX 01 65:49:20
REM LEADOUT 68:50:52
